<?xml version="1.0" encoding="utf-8"?>
<!-- Generator: Adobe Illustrator 16.0.0, SVG Export Plug-In . SVG Version: 6.00 Build 0)  -->
<!DOCTYPE svg PUBLIC "-//W3C//DTD SVG 1.1//EN" "http://www.w3.org/Graphics/SVG/1.1/DTD/svg11.dtd">
<svg version="1.1" id="Layer_1" xmlns="http://www.w3.org/2000/svg" xmlns:xlink="http://www.w3.org/1999/xlink" x="0px" y="0px"
	 width="224.25px" height="71.5px" viewBox="0 0 224.25 71.5" enable-background="new 0 0 224.25 71.5" xml:space="preserve">
<g>
	<g>
		<path fill="#0032A0" d="M98.964,11.088h-12.42c-2.557,0-4.586,2.012-4.586,4.574v35.659c0.021,0.681,0.557,1.226,1.236,1.249
			h6.676c0.674-0.004,1.217-0.539,1.248-1.203V40.196h6.947c9.326,0,16.82-4.985,16.82-14.612v-0.12
			C114.886,16.961,108.886,11.088,98.964,11.088 M105.614,25.766c0,3.557-2.668,6.297-7.248,6.297h-7.248V19.34h7.068
			c4.574,0,7.428,2.196,7.428,6.294V25.766z"/>
		<path fill="#0032A0" d="M222.288,51.299L222.288,51.299V15.037c0-2.561-2.018-4.586-4.582-4.586c-2.553,0-4.572,2.025-4.572,4.586
			v36.262c0.002,0.703,0.561,1.26,1.262,1.26h6.639C221.724,52.559,222.288,51.992,222.288,51.299"/>
		<path fill="#0032A0" d="M155.894,51.337c0-0.151-0.018-0.292-0.063-0.419l-16.32-36.829c-1.01-2.263-2.793-3.638-5.289-3.638
			h-0.533c-2.494,0-4.338,1.375-5.348,3.638l-16.152,36.378c-0.061,0.138-0.113,0.279-0.174,0.418
			c-0.059,0.143-0.084,0.288-0.084,0.442c0,0.704,0.563,1.265,1.271,1.265l0,0h6.658c0.508-0.016,0.918-0.322,1.119-0.76l0,0
			l3.674-8.447h18.313l3.662,8.451c0.188,0.439,0.629,0.752,1.133,0.764l6.934-0.008C155.366,52.57,155.894,52.014,155.894,51.337
			 M128.046,35.301l5.76-13.727l5.76,13.727H128.046z"/>
		<rect x="160.829" y="57.175" fill="#00A5E1" width="1.322" height="12.999"/>
		<polygon fill="#00A5E1" points="176.079,68.235 176.116,68.235 176.116,57.175 177.437,57.175 177.437,70.174 175.78,70.174 
			168.216,58.99 168.188,58.99 168.188,70.174 166.866,70.174 166.866,57.175 168.522,57.175 		"/>
		<path fill="#00A5E1" d="M188.075,59.265c-0.273-0.384-0.643-0.704-1.076-0.938c-0.441-0.246-0.979-0.358-1.598-0.358
			c-0.318,0-0.65,0.052-0.971,0.147c-0.328,0.095-0.629,0.244-0.906,0.445c-0.264,0.205-0.48,0.456-0.646,0.762
			c-0.168,0.303-0.252,0.668-0.252,1.084c0,0.42,0.084,0.752,0.246,1.033c0.158,0.258,0.359,0.492,0.629,0.682
			c0.26,0.199,0.549,0.345,0.896,0.471c0.328,0.121,0.686,0.242,1.051,0.358c0.451,0.152,0.906,0.307,1.357,0.479
			c0.461,0.179,0.879,0.396,1.236,0.677c0.377,0.271,0.67,0.619,0.902,1.039c0.234,0.426,0.346,0.961,0.346,1.602
			c0,0.662-0.121,1.211-0.371,1.688c-0.244,0.477-0.564,0.863-0.959,1.172c-0.393,0.298-0.854,0.527-1.348,0.674
			c-0.518,0.141-1.021,0.221-1.545,0.221c-0.385,0-0.777-0.047-1.162-0.118c-0.404-0.08-0.771-0.2-1.125-0.36
			c-0.363-0.166-0.691-0.356-0.992-0.607c-0.311-0.244-0.576-0.518-0.813-0.84l1.143-0.835c0.275,0.446,0.666,0.835,1.189,1.157
			c0.494,0.311,1.092,0.467,1.775,0.467c0.34,0,0.676-0.055,1.016-0.156c0.336-0.106,0.652-0.27,0.926-0.479
			c0.275-0.215,0.506-0.477,0.684-0.795c0.168-0.305,0.256-0.665,0.256-1.092c0-0.441-0.088-0.832-0.256-1.127
			c-0.178-0.296-0.408-0.536-0.709-0.752c-0.295-0.201-0.627-0.371-1.006-0.503c-0.385-0.136-0.777-0.274-1.195-0.406
			c-0.434-0.128-0.852-0.288-1.273-0.456c-0.406-0.169-0.785-0.393-1.113-0.672c-0.324-0.271-0.592-0.605-0.795-1.019
			c-0.205-0.4-0.311-0.895-0.311-1.485c0-0.629,0.127-1.163,0.377-1.619c0.258-0.443,0.582-0.817,0.979-1.111
			c0.41-0.303,0.852-0.507,1.352-0.646c0.482-0.131,0.971-0.201,1.436-0.201c0.889,0,1.639,0.152,2.264,0.467
			c0.625,0.311,1.092,0.693,1.416,1.111L188.075,59.265z"/>
		<path fill="#00A5E1" d="M199.382,59.265c-0.277-0.384-0.645-0.704-1.082-0.938c-0.434-0.246-0.971-0.358-1.596-0.358
			c-0.316,0-0.635,0.052-0.979,0.147c-0.334,0.095-0.625,0.244-0.898,0.445c-0.27,0.205-0.486,0.456-0.648,0.762
			c-0.166,0.303-0.248,0.668-0.248,1.084c0,0.42,0.082,0.752,0.236,1.033c0.162,0.258,0.369,0.492,0.633,0.682
			c0.268,0.199,0.559,0.345,0.887,0.471c0.34,0.121,0.701,0.242,1.059,0.358c0.459,0.152,0.904,0.307,1.367,0.479
			c0.471,0.179,0.867,0.396,1.234,0.677c0.367,0.271,0.67,0.619,0.9,1.039c0.23,0.426,0.348,0.961,0.348,1.602
			c0,0.662-0.123,1.211-0.373,1.688s-0.572,0.863-0.967,1.172c-0.381,0.298-0.84,0.527-1.363,0.674
			c-0.5,0.141-1.008,0.221-1.523,0.221c-0.387,0-0.781-0.047-1.17-0.118c-0.398-0.08-0.77-0.2-1.127-0.36
			c-0.352-0.166-0.678-0.356-0.982-0.607c-0.305-0.244-0.584-0.518-0.805-0.84l1.137-0.835c0.279,0.446,0.672,0.835,1.17,1.157
			c0.51,0.311,1.117,0.467,1.807,0.467c0.324,0,0.658-0.055,1-0.156c0.34-0.106,0.658-0.27,0.934-0.479
			c0.27-0.215,0.5-0.477,0.674-0.795c0.172-0.305,0.262-0.665,0.262-1.092c0-0.441-0.09-0.832-0.262-1.127
			c-0.174-0.296-0.414-0.536-0.705-0.752c-0.295-0.201-0.633-0.371-1-0.503c-0.395-0.136-0.795-0.274-1.207-0.406
			c-0.418-0.128-0.85-0.288-1.266-0.456c-0.412-0.169-0.789-0.393-1.117-0.672c-0.328-0.271-0.594-0.605-0.799-1.019
			c-0.201-0.4-0.299-0.895-0.299-1.485c0-0.629,0.123-1.163,0.383-1.619c0.246-0.443,0.564-0.817,0.971-1.111
			c0.406-0.303,0.854-0.507,1.342-0.646c0.486-0.131,0.971-0.201,1.451-0.201c0.871,0,1.631,0.152,2.252,0.467
			c0.627,0.311,1.1,0.693,1.414,1.111L199.382,59.265z"/>
		<path fill="#00A5E1" d="M203.614,67.511c0.096,0.511,0.332,0.951,0.689,1.29c0.371,0.348,0.834,0.523,1.422,0.523
			c0.455,0,0.832-0.078,1.115-0.25c0.291-0.164,0.537-0.374,0.709-0.66c0.172-0.291,0.307-0.604,0.371-0.963
			c0.066-0.375,0.096-0.743,0.096-1.138v-9.139h1.324v9.253c0,0.422-0.045,0.881-0.141,1.352c-0.086,0.482-0.258,0.921-0.521,1.321
			c-0.254,0.408-0.613,0.738-1.063,1.007c-0.457,0.262-1.031,0.393-1.742,0.393c-0.936,0-1.719-0.252-2.326-0.755
			c-0.617-0.499-1.006-1.14-1.156-1.905L203.614,67.511z"/>
		<path fill="#00A5E1" d="M214.2,57.175h3.668c0.662,0,1.256,0.067,1.795,0.208c0.543,0.145,1.002,0.36,1.389,0.645
			c0.383,0.289,0.678,0.643,0.896,1.084c0.197,0.43,0.307,0.954,0.307,1.531c0,0.588-0.109,1.095-0.32,1.537
			c-0.221,0.437-0.516,0.791-0.9,1.077c-0.379,0.294-0.852,0.497-1.398,0.654c-0.547,0.143-1.16,0.214-1.811,0.214h-2.309v6.049
			H214.2V57.175z M215.517,63.01h2.234c1.055,0,1.836-0.203,2.375-0.604c0.539-0.404,0.801-0.989,0.801-1.764
			c0-0.809-0.271-1.402-0.834-1.776c-0.557-0.362-1.338-0.55-2.342-0.55h-2.234V63.01z"/>
		<path fill="#0032A0" d="M205.04,51.357V15.066c0-2.571-2.039-4.615-4.615-4.615h-1.014c-1.859,0-3.178,0.789-4.133,2.35
			l-12.291,18.19l-12.346-18.147c-0.828-1.367-2.217-2.393-4.184-2.393h-1.029c-2.564,0-4.6,2.044-4.6,4.615v36.271l0,0
			c0,0.665,0.516,1.21,1.182,1.255h6.652c0.654-0.021,1.172-0.553,1.205-1.207V27.639l9.174,12.262
			c0.943,1.443,2.156,2.348,3.83,2.348c1.676,0,2.869-0.904,3.826-2.348l9.184-12.438v23.859c0,0.702,0.561,1.267,1.27,1.267h6.613
			l0,0C204.456,52.588,205.009,52.039,205.04,51.357"/>
		<path fill="#00A5E1" d="M21.161,31.494c0,5.148,4.188,9.347,9.363,9.347c5.166,0,9.361-4.198,9.361-9.347
			c0-5.182-4.195-9.381-9.361-9.381C25.349,22.113,21.161,26.313,21.161,31.494"/>
	</g>
	<g>
		<defs>
			<path id="SVGID_1_" d="M11.45,31.492c0-10.523,8.543-19.063,19.07-19.063c10.529,0,19.072,8.539,19.072,19.063
				c0,10.527-8.543,19.078-19.072,19.078C19.993,50.57,11.45,42.02,11.45,31.492 M1.962,31.492
				c0,15.783,12.785,28.573,28.559,28.573c15.781,0,28.559-12.79,28.559-28.573c0-15.775-12.777-28.557-28.559-28.557
				C14.747,2.936,1.962,15.717,1.962,31.492"/>
		</defs>
		<clipPath id="SVGID_2_">
			<use xlink:href="#SVGID_1_"  overflow="visible"/>
		</clipPath>
		<rect x="1.962" y="2.936" clip-path="url(#SVGID_2_)" fill="#FFC82D" width="57.117" height="57.13"/>
	</g>
	<path fill="#00A5E1" d="M30.521,60.065c-14.203,0-25.992-10.382-28.189-23.979c0,0-0.926-4.189,3.596-5.101
		c5.117-0.849,5.881,4.178,5.881,4.178c1.697,8.78,9.445,15.407,18.713,15.407c9.275,0,17.004-6.627,18.717-15.407
		c0,0,0.766-5.026,5.887-4.178c4.506,0.911,3.592,5.101,3.592,5.101C56.517,49.684,44.735,60.065,30.521,60.065"/>
</g>
</svg>
