<?xml version="1.0" encoding="utf-8"?>
<!-- Generator: Adobe Illustrator 23.0.2, SVG Export Plug-In . SVG Version: 6.00 Build 0)  -->
<svg version="1.1" id="Capa_1" xmlns="http://www.w3.org/2000/svg" xmlns:xlink="http://www.w3.org/1999/xlink" x="0px" y="0px"
	 viewBox="0 0 243.19 48.64" style="enable-background:new 0 0 243.19 48.64;" xml:space="preserve">
<style type="text/css">
	.st0357{fill:#282727;}
	.st1658{fill:#EA0029;}
</style>
<g>
	<g>
		<g>
			<path class="st0357" d="M64.41,19.17c-0.55-0.71-1.36-1.3-2.41-1.75c-1.05-0.46-2.79-0.88-4.47-1.26c-1.59-0.36-2.74-0.75-3.4-1.17
				c-0.68-0.42-1.02-1.03-1.02-1.82c0-0.93,0.38-1.67,1.14-2.2c0.75-0.52,1.79-0.79,3.09-0.79c1.65,0,3.6,0.48,5.34,1.32V8.53
				c-0.41-0.19-0.92-0.4-1.34-0.54c-1.26-0.42-2.61-0.63-4-0.63c-1.53,0-2.89,0.26-4.06,0.77c-1.17,0.51-2.08,1.24-2.72,2.15
				c-0.64,0.91-0.96,1.96-0.96,3.11c0,1.12,0.27,2.05,0.79,2.77c0.52,0.73,1.31,1.33,2.35,1.8c1.04,0.47,2.41,0.89,4.07,1.24
				c1.61,0.36,3.14,0.74,3.83,1.14c0.7,0.4,1.06,1,1.06,1.76c0,0.88-0.39,1.57-1.15,2.06c-0.75,0.48-2.2,0.73-3.59,0.73
				c-1.25,0-2.43-0.17-3.5-0.51c-1.02-0.32-2.7-1.28-3.69-2.01v3.38c0.71,0.45,1.78,1.03,2.84,1.35c1.34,0.41,2.79,0.62,4.32,0.62
				c1.62,0,3.41-0.24,4.6-0.72c1.19-0.48,2.12-1.16,2.74-2.05c0.63-0.88,0.95-1.93,0.95-3.1C65.24,20.78,64.96,19.87,64.41,19.17z"
				/>
		</g>
		<polygon class="st0357" points="82.46,23.16 78.48,11.51 76.22,11.51 72.13,23.1 68.24,11.51 65,11.51 70.74,27.69 73.31,27.69 
			77.27,16.5 81.21,27.69 83.78,27.69 89.54,11.51 86.47,11.51 		"/>
		<rect x="91.86" y="11.51" class="st0357" width="3.2" height="16.19"/>
		<path class="st0357" d="M108,19.34c-0.85-0.37-1.96-0.71-3.31-1.01c-1.25-0.28-2.15-0.59-2.67-0.91c-0.49-0.31-0.74-0.74-0.74-1.31
			c0-0.7,0.28-1.23,0.84-1.62c0.57-0.4,1.37-0.6,2.37-0.6c1.29,0,2.88,0.4,4.25,1.06l0.19,0.09V12.3l-0.07-0.04
			c-0.34-0.16-0.76-0.33-1.11-0.45c-1.03-0.34-2.12-0.51-3.25-0.51c-1.24,0-2.35,0.21-3.31,0.63c-0.96,0.42-1.71,1.02-2.24,1.77
			c-0.53,0.76-0.8,1.63-0.8,2.58c0,0.93,0.22,1.71,0.66,2.31c0.44,0.6,1.09,1.1,1.94,1.49c0.84,0.38,1.94,0.72,3.28,1
			c1.27,0.28,2.19,0.58,2.73,0.89c0.51,0.29,0.76,0.71,0.76,1.26c0,0.65-0.27,1.14-0.84,1.51c-0.58,0.37-1.41,0.56-2.49,0.56
			c-0.98,0-1.9-0.17-2.75-0.4c-1.1-0.31-2.89-1.4-2.89-1.4l0,2.94l0.06,0.04c0.59,0.38,1.18,0.64,2.05,0.91
			c1.08,0.33,2.26,0.5,3.5,0.5c1.32,0,2.48-0.2,3.45-0.59c0.98-0.39,1.74-0.96,2.27-1.69c0.52-0.73,0.79-1.6,0.79-2.57
			c0-0.9-0.24-1.65-0.7-2.25C109.53,20.21,108.86,19.72,108,19.34z"/>
		<path class="st0357" d="M123.09,19.34c-0.85-0.37-1.96-0.71-3.31-1.01c-1.25-0.28-2.15-0.59-2.67-0.91
			c-0.49-0.31-0.74-0.74-0.74-1.31c0-0.7,0.28-1.23,0.84-1.62c0.57-0.4,1.37-0.6,2.37-0.6c1.29,0,2.88,0.4,4.25,1.06l0.19,0.09V12.3
			l-0.07-0.04c-0.34-0.16-0.76-0.33-1.11-0.45c-1.03-0.34-2.12-0.51-3.25-0.51c-1.24,0-2.35,0.21-3.31,0.63
			c-0.96,0.42-1.71,1.02-2.24,1.77c-0.53,0.76-0.8,1.63-0.8,2.58c0,0.93,0.22,1.71,0.66,2.31c0.44,0.6,1.09,1.1,1.94,1.49
			c0.84,0.38,1.94,0.72,3.28,1c1.27,0.28,2.19,0.58,2.73,0.89c0.51,0.29,0.76,0.71,0.76,1.26c0,0.65-0.27,1.14-0.84,1.51
			c-0.58,0.37-1.41,0.56-2.49,0.56c-0.98,0-1.9-0.17-2.75-0.4c-1.1-0.31-2.89-1.4-2.89-1.4l0,2.94l0.06,0.04
			c0.59,0.38,1.18,0.64,2.05,0.91c1.08,0.33,2.26,0.5,3.5,0.5c1.32,0,2.48-0.2,3.45-0.59c0.98-0.39,1.74-0.96,2.27-1.69
			c0.52-0.73,0.79-1.6,0.79-2.57c0-0.9-0.24-1.65-0.7-2.25C124.62,20.21,123.95,19.72,123.09,19.34z"/>
		<polygon class="st0357" points="142.48,21.77 137.05,11.51 134.52,11.51 134.52,27.69 137.38,27.69 137.35,17.66 141.4,25.12 
			143.51,25.12 147.54,17.56 147.54,27.69 150.39,27.69 150.39,11.51 147.89,11.51 		"/>
		<polygon class="st0357" points="153.54,27.69 164.54,27.69 164.54,25.13 156.66,25.13 156.66,20.73 164.08,20.73 164.08,18.19 
			156.66,18.19 156.66,14.07 164.54,14.07 164.54,11.51 153.54,11.51 		"/>
		<path class="st0357" d="M173.24,11.51h-6.05v16.19h6.05c2.65,0,4.73-0.72,6.2-2.14c1.47-1.42,2.21-3.43,2.21-5.97
			c0-2.54-0.74-4.54-2.21-5.96C177.98,12.22,175.89,11.51,173.24,11.51z M170.39,14.14h2.67c3.63,0,5.4,1.78,5.4,5.45
			c0,3.68-1.77,5.47-5.4,5.47h-2.67V14.14z"/>
		<rect x="184.23" y="11.51" class="st0357" width="3.2" height="16.19"/>
		<path class="st0357" d="M197.89,13.94c0.78,0,1.85,0.2,2.55,0.42c1.32,0.41,2.01,0.78,2.01,0.78l-0.02-2.81c0,0-0.82-0.38-1.51-0.59
			c-1.11-0.33-2-0.43-3.08-0.43c-1.59,0-3,0.34-4.19,1.02c-1.19,0.68-2.12,1.66-2.76,2.9c-0.64,1.24-0.96,2.71-0.96,4.36
			c0,1.66,0.32,3.13,0.96,4.37c0.64,1.25,1.57,2.23,2.76,2.91c1.19,0.68,2.6,1.02,4.19,1.02c2.75,0,4.59-1.02,4.59-1.02l0.03-2.81
			c0,0-2.41,1.21-4.57,1.19c-1.5-0.01-2.67-0.49-3.48-1.45c-0.82-0.96-1.23-2.39-1.23-4.23c0-1.83,0.41-3.24,1.23-4.21
			C195.22,14.42,196.39,13.94,197.89,13.94z"/>
		<path class="st0357" d="M214.06,11.51h-2.56l-7.38,16.19h3.25l1.62-3.73h7.64l1.62,3.73h3.2L214.06,11.51z M215.53,21.45h-5.47
			l2.74-6.32L215.53,21.45z"/>
		<g>
			<polygon class="st0357" points="226.64,7.99 223.5,7.99 223.5,27.69 235.18,27.69 235.18,24.98 226.64,24.98 			"/>
		</g>
		<g>
			<path class="st0357" d="M55.17,34.01h1.12v6.55h-1.27v-3.88l-1.51,2.81h-0.93l-1.51-2.77v3.85h-1.27v-6.55h1.14l2.11,4L55.17,34.01z
				"/>
			<path class="st0357" d="M62.66,40.56v-6.55h4.52v1.12h-3.1v1.53h2.92v1.12h-2.92v1.64h3.1v1.12H62.66z"/>
			<path class="st0357" d="M73.44,34.01h2.55c0.71,0,1.33,0.13,1.84,0.39c0.51,0.26,0.91,0.63,1.18,1.12c0.27,0.49,0.41,1.08,0.41,1.76
				c0,0.68-0.13,1.27-0.4,1.76c-0.27,0.49-0.66,0.87-1.18,1.13c-0.51,0.26-1.13,0.39-1.85,0.39h-2.55V34.01z M75.88,39.38
				c1.39,0,2.09-0.7,2.09-2.11c0-1.4-0.7-2.1-2.09-2.1h-0.99v4.21H75.88z"/>
			<path class="st0357" d="M85.78,40.56v-6.55h1.45v6.55H85.78z"/>
			<path class="st0357" d="M96.44,40.22c-0.49-0.28-0.87-0.67-1.13-1.18c-0.26-0.51-0.39-1.1-0.39-1.77s0.13-1.26,0.39-1.77
				c0.26-0.51,0.64-0.9,1.13-1.18c0.49-0.28,1.07-0.41,1.73-0.41c0.43,0,0.85,0.07,1.24,0.2c0.4,0.13,0.72,0.32,0.98,0.55
				l-0.46,1.03c-0.28-0.22-0.57-0.37-0.85-0.47c-0.28-0.1-0.57-0.15-0.88-0.15c-0.58,0-1.03,0.19-1.34,0.56s-0.47,0.92-0.47,1.64
				s0.16,1.27,0.47,1.64s0.76,0.56,1.34,0.56c0.3,0,0.6-0.05,0.88-0.15c0.28-0.1,0.57-0.26,0.85-0.47l0.46,1.03
				c-0.25,0.24-0.58,0.42-0.98,0.55s-0.81,0.2-1.24,0.2C97.51,40.64,96.93,40.5,96.44,40.22z"/>
			<path class="st0357" d="M108.08,40.56v-6.55h1.45v6.55H108.08z"/>
			<path class="st0357" d="M122.51,34.01h1.36v6.55h-1.08l-3.26-4.17v4.17h-1.35v-6.55h1.07l3.26,4.15V34.01z"/>
			<path class="st0357" d="M135.77,40.56l-0.62-1.45h-3.05l-0.62,1.45h-1.46l3.01-6.55h1.16l3.01,6.55H135.77z M132.58,38.01h2.1
				l-1.05-2.45L132.58,38.01z"/>
			<path class="st0357" d="M148.9,34.01h3.01c0.71,0,1.27,0.18,1.66,0.54c0.4,0.36,0.59,0.86,0.59,1.51s-0.2,1.15-0.59,1.51
				c-0.4,0.36-0.95,0.54-1.66,0.54h-1.56v2.46h-1.45V34.01z M151.72,37c0.72,0,1.09-0.31,1.09-0.94c0-0.32-0.09-0.56-0.27-0.72
				c-0.18-0.15-0.45-0.23-0.82-0.23h-1.38V37H151.72z"/>
			<path class="st0357" d="M167.72,40.56h-1.58l-1.13-2.09c-0.09-0.16-0.2-0.28-0.33-0.35c-0.13-0.07-0.29-0.11-0.49-0.11h-0.72v2.55
				h-1.43v-6.55h3.01c0.77,0,1.35,0.17,1.74,0.51c0.39,0.34,0.59,0.83,0.59,1.46c0,0.5-0.14,0.91-0.41,1.24
				c-0.28,0.33-0.66,0.55-1.17,0.66c0.34,0.09,0.63,0.33,0.86,0.73L167.72,40.56z M165.73,36.69c0.19-0.15,0.28-0.37,0.28-0.68
				c0-0.32-0.09-0.55-0.28-0.69c-0.19-0.14-0.49-0.21-0.9-0.21h-1.38v1.8h1.38C165.25,36.91,165.55,36.84,165.73,36.69z"/>
			<path class="st0357" d="M177.5,40.56v-6.55h1.45v6.55H177.5z"/>
			<path class="st0357" d="M192.91,34.01h1.47l-2.95,6.55h-1.16l-2.95-6.55h1.51l2.04,4.75L192.91,34.01z"/>
			<path class="st0357" d="M207.08,40.56l-0.62-1.45h-3.05l-0.62,1.45h-1.46l3.01-6.55h1.16l3.01,6.55H207.08z M203.88,38.01h2.1
				l-1.05-2.45L203.88,38.01z"/>
			<path class="st0357" d="M215.28,34.01h2.55c0.71,0,1.33,0.13,1.84,0.39c0.51,0.26,0.91,0.63,1.18,1.12
				c0.27,0.49,0.41,1.08,0.41,1.76c0,0.68-0.13,1.27-0.4,1.76c-0.27,0.49-0.66,0.87-1.18,1.13c-0.51,0.26-1.13,0.39-1.85,0.39h-2.55
				V34.01z M217.72,39.38c1.39,0,2.09-0.7,2.09-2.11c0-1.4-0.7-2.1-2.09-2.1h-0.99v4.21H217.72z"/>
			<path class="st0357" d="M233.77,40.56l-0.62-1.45h-3.05l-0.62,1.45h-1.46l3.01-6.55h1.16l3.01,6.55H233.77z M230.57,38.01h2.1
				l-1.05-2.45L230.57,38.01z"/>
		</g>
	</g>
	<g>
		<g>
			<g>
				<rect x="7.2" y="28.75" class="st1658" width="11.8" height="11.8"/>
			</g>
		</g>
		<g>
			<g>
				<rect x="7.2" y="7.52" class="st1658" width="11.8" height="11.8"/>
			</g>
		</g>
		<g>
			<g>
				<rect x="28.43" y="28.75" class="st1658" width="11.8" height="11.8"/>
			</g>
		</g>
		<g>
			<g>
				<rect x="28.43" y="7.52" class="st1658" width="11.8" height="11.8"/>
			</g>
		</g>
	</g>
</g>
</svg>
